<svg width="1440" height="662" viewBox="0 0 1440 662" fill="none" xmlns="http://www.w3.org/2000/svg">
<rect width="1443.81" height="663.75" fill="#FBF8F1"/>
<g opacity="0.2" clip-path="url(#clip0_368_60881)">
<path d="M0 525.358C59.4902 363.097 191.906 -16.3698 821.165 6.49049C1450.42 29.3508 1761.98 -226.791 1767.16 -388.05" stroke="#D69009" stroke-width="1.00264"/>
<path d="M223.59 914.884C283.08 752.623 559.375 433.816 1188.63 456.676C1817.89 479.536 1914.38 382.815 1919.56 221.557" stroke="#D69009" stroke-width="1.00264"/>
<path d="M0 1024.67C59.4902 862.413 249.057 619.306 878.316 642.166C1507.57 665.027 1761.98 272.525 1767.16 111.267" stroke="#D69009" stroke-width="1.00264"/>
<g opacity="0.5">
<rect x="899.872" y="305.277" width="114.624" height="35.0925" rx="3.50925" stroke="white" stroke-width="1.00264"/>
<g clip-path="url(#clip1_368_60881)">
<path d="M926.85 318.222L922.258 322.824L926.85 327.426L925.436 328.84L919.42 322.824L925.436 316.808L926.85 318.222Z" fill="white"/>
</g>
<path d="M936.616 325.792V314.125H940.991C941.887 314.125 942.639 314.292 943.247 314.626C943.858 314.96 944.32 315.42 944.631 316.005C944.946 316.586 945.104 317.247 945.104 317.987C945.104 318.736 944.946 319.4 944.631 319.981C944.316 320.562 943.851 321.02 943.235 321.354C942.62 321.685 941.862 321.85 940.962 321.85H938.063V320.112H940.677C941.202 320.112 941.631 320.021 941.965 319.839C942.299 319.656 942.546 319.406 942.706 319.087C942.869 318.768 942.95 318.401 942.95 317.987C942.95 317.573 942.869 317.209 942.706 316.894C942.546 316.578 942.297 316.333 941.959 316.159C941.625 315.98 941.194 315.891 940.666 315.891H938.729V325.792H936.616ZM946.929 325.792V317.042H948.928V318.5H949.02C949.179 317.995 949.452 317.606 949.84 317.332C950.231 317.055 950.677 316.916 951.179 316.916C951.293 316.916 951.42 316.922 951.56 316.933C951.705 316.941 951.824 316.954 951.919 316.973V318.87C951.832 318.84 951.693 318.813 951.503 318.791C951.317 318.764 951.137 318.751 950.962 318.751C950.586 318.751 950.248 318.832 949.948 318.996C949.652 319.155 949.418 319.377 949.247 319.662C949.076 319.947 948.991 320.276 948.991 320.648V325.792H946.929ZM956.883 325.963C956.006 325.963 955.248 325.781 954.61 325.416C953.976 325.048 953.488 324.527 953.146 323.855C952.804 323.179 952.633 322.383 952.633 321.468C952.633 320.568 952.804 319.778 953.146 319.098C953.492 318.415 953.974 317.883 954.593 317.503C955.212 317.12 955.939 316.928 956.775 316.928C957.314 316.928 957.823 317.015 958.302 317.19C958.784 317.361 959.209 317.627 959.578 317.987C959.95 318.348 960.242 318.808 960.455 319.366C960.668 319.92 960.774 320.581 960.774 321.348V321.981H953.602V320.591H958.797C958.793 320.196 958.708 319.844 958.541 319.537C958.374 319.225 958.14 318.98 957.84 318.802C957.544 318.623 957.198 318.534 956.803 318.534C956.382 318.534 956.011 318.637 955.692 318.842C955.373 319.043 955.125 319.309 954.946 319.639C954.771 319.966 954.682 320.325 954.678 320.716V321.93C954.678 322.438 954.771 322.875 954.957 323.24C955.144 323.601 955.404 323.878 955.738 324.072C956.072 324.261 956.463 324.356 956.912 324.356C957.212 324.356 957.483 324.315 957.726 324.231C957.969 324.144 958.18 324.016 958.359 323.849C958.537 323.682 958.672 323.475 958.763 323.228L960.689 323.445C960.567 323.954 960.335 324.398 959.993 324.778C959.655 325.154 959.223 325.446 958.695 325.655C958.167 325.86 957.563 325.963 956.883 325.963ZM970.164 317.042L967.048 325.792H964.769L961.653 317.042H963.852L965.863 323.542H965.954L967.971 317.042H970.164ZM971.672 325.792V317.042H973.734V325.792H971.672ZM972.708 315.8C972.382 315.8 972.101 315.691 971.865 315.475C971.63 315.255 971.512 314.991 971.512 314.683C971.512 314.372 971.63 314.108 971.865 313.891C972.101 313.671 972.382 313.561 972.708 313.561C973.039 313.561 973.32 313.671 973.551 313.891C973.787 314.108 973.905 314.372 973.905 314.683C973.905 314.991 973.787 315.255 973.551 315.475C973.32 315.691 973.039 315.8 972.708 315.8ZM979.752 325.963C978.897 325.963 978.156 325.775 977.53 325.399C976.903 325.023 976.417 324.497 976.071 323.821C975.73 323.145 975.559 322.355 975.559 321.451C975.559 320.547 975.73 319.755 976.071 319.075C976.417 318.396 976.903 317.868 977.53 317.492C978.156 317.116 978.897 316.928 979.752 316.928C980.606 316.928 981.347 317.116 981.973 317.492C982.6 317.868 983.084 318.396 983.426 319.075C983.772 319.755 983.944 320.547 983.944 321.451C983.944 322.355 983.772 323.145 983.426 323.821C983.084 324.497 982.6 325.023 981.973 325.399C981.347 325.775 980.606 325.963 979.752 325.963ZM979.763 324.311C980.226 324.311 980.614 324.184 980.925 323.929C981.236 323.671 981.468 323.325 981.62 322.892C981.776 322.459 981.854 321.977 981.854 321.445C981.854 320.91 981.776 320.426 981.62 319.993C981.468 319.556 981.236 319.208 980.925 318.95C980.614 318.692 980.226 318.563 979.763 318.563C979.288 318.563 978.893 318.692 978.578 318.95C978.267 319.208 978.033 319.556 977.877 319.993C977.725 320.426 977.649 320.91 977.649 321.445C977.649 321.977 977.725 322.459 977.877 322.892C978.033 323.325 978.267 323.671 978.578 323.929C978.893 324.184 979.288 324.311 979.763 324.311ZM991.352 322.112V317.042H993.414V325.792H991.415V324.237H991.324C991.126 324.727 990.801 325.127 990.35 325.439C989.901 325.75 989.349 325.906 988.692 325.906C988.118 325.906 987.611 325.779 987.171 325.524C986.734 325.266 986.392 324.892 986.145 324.402C985.898 323.908 985.775 323.312 985.775 322.613V317.042H987.837V322.294C987.837 322.849 987.989 323.289 988.293 323.616C988.597 323.942 988.996 324.106 989.489 324.106C989.793 324.106 990.087 324.032 990.372 323.884C990.657 323.735 990.891 323.515 991.073 323.223C991.259 322.926 991.352 322.556 991.352 322.112ZM1002.53 319.355L1000.65 319.56C1000.6 319.37 1000.51 319.191 1000.37 319.024C1000.24 318.857 1000.07 318.722 999.848 318.62C999.628 318.517 999.358 318.466 999.039 318.466C998.61 318.466 998.249 318.559 997.957 318.745C997.668 318.931 997.526 319.172 997.529 319.469C997.526 319.723 997.619 319.93 997.809 320.089C998.002 320.249 998.321 320.38 998.766 320.483L1000.26 320.802C1001.09 320.98 1001.7 321.263 1002.1 321.65C1002.51 322.038 1002.72 322.545 1002.72 323.171C1002.72 323.722 1002.55 324.208 1002.23 324.63C1001.92 325.048 1001.48 325.374 1000.92 325.61C1000.36 325.845 999.711 325.963 998.982 325.963C997.911 325.963 997.049 325.739 996.396 325.291C995.742 324.839 995.353 324.21 995.228 323.405L997.239 323.211C997.33 323.606 997.524 323.904 997.82 324.106C998.116 324.307 998.502 324.408 998.976 324.408C999.466 324.408 999.859 324.307 1000.16 324.106C1000.46 323.904 1000.61 323.656 1000.61 323.359C1000.61 323.109 1000.51 322.902 1000.32 322.738C1000.13 322.575 999.829 322.45 999.426 322.362L997.934 322.049C997.095 321.874 996.474 321.58 996.071 321.166C995.668 320.748 995.469 320.22 995.473 319.582C995.469 319.043 995.615 318.576 995.912 318.181C996.212 317.782 996.627 317.475 997.159 317.258C997.695 317.038 998.312 316.928 999.011 316.928C1000.04 316.928 1000.84 317.146 1001.43 317.583C1002.02 318.02 1002.39 318.61 1002.53 319.355Z" fill="white"/>
</g>
<rect x="1023.52" y="305.277" width="83.8742" height="35.0925" rx="3.50925" stroke="white" stroke-width="1.00264"/>
<path d="M1045.79 314.125V325.792H1043.91L1038.41 317.845H1038.32V325.792H1036.2V314.125H1038.09L1043.58 322.078H1043.69V314.125H1045.79ZM1051.96 325.963C1051.08 325.963 1050.32 325.781 1049.68 325.416C1049.05 325.048 1048.56 324.527 1048.22 323.855C1047.88 323.179 1047.71 322.383 1047.71 321.468C1047.71 320.568 1047.88 319.778 1048.22 319.098C1048.56 318.415 1049.05 317.883 1049.67 317.503C1050.28 317.12 1051.01 316.928 1051.85 316.928C1052.39 316.928 1052.9 317.015 1053.37 317.19C1053.86 317.361 1054.28 317.627 1054.65 317.987C1055.02 318.348 1055.31 318.808 1055.53 319.366C1055.74 319.92 1055.85 320.581 1055.85 321.348V321.981H1048.67V320.591H1053.87C1053.87 320.196 1053.78 319.844 1053.61 319.537C1053.45 319.225 1053.21 318.98 1052.91 318.802C1052.62 318.623 1052.27 318.534 1051.88 318.534C1051.45 318.534 1051.08 318.637 1050.76 318.842C1050.45 319.043 1050.2 319.309 1050.02 319.639C1049.84 319.966 1049.75 320.325 1049.75 320.716V321.93C1049.75 322.438 1049.84 322.875 1050.03 323.24C1050.22 323.601 1050.48 323.878 1050.81 324.072C1051.14 324.261 1051.54 324.356 1051.98 324.356C1052.28 324.356 1052.56 324.315 1052.8 324.231C1053.04 324.144 1053.25 324.016 1053.43 323.849C1053.61 323.682 1053.74 323.475 1053.84 323.228L1055.76 323.445C1055.64 323.954 1055.41 324.398 1055.07 324.778C1054.73 325.154 1054.29 325.446 1053.77 325.655C1053.24 325.86 1052.64 325.963 1051.96 325.963ZM1059.17 317.042L1060.94 320.272L1062.73 317.042H1064.91L1062.27 321.417L1064.96 325.792H1062.79L1060.94 322.642L1059.1 325.792H1056.91L1059.58 321.417L1056.98 317.042H1059.17ZM1070.96 317.042V318.637H1065.93V317.042H1070.96ZM1067.17 314.945H1069.23V323.16C1069.23 323.437 1069.27 323.65 1069.36 323.798C1069.44 323.942 1069.56 324.041 1069.7 324.094C1069.84 324.148 1069.99 324.174 1070.16 324.174C1070.29 324.174 1070.41 324.165 1070.52 324.146C1070.63 324.127 1070.71 324.11 1070.77 324.094L1071.12 325.707C1071.01 325.745 1070.85 325.786 1070.64 325.832C1070.44 325.877 1070.19 325.904 1069.9 325.912C1069.39 325.927 1068.92 325.849 1068.51 325.678C1068.09 325.503 1067.76 325.234 1067.52 324.869C1067.28 324.505 1067.16 324.049 1067.17 323.502V314.945Z" fill="white"/>
<g clip-path="url(#clip2_368_60881)">
<path d="M1080.41 327.426L1085 322.823L1080.41 318.221L1081.83 316.808L1087.84 322.823L1081.83 328.839L1080.41 327.426Z" fill="white"/>
</g>
</g>
<g opacity="0.16">
<circle cx="1230.24" cy="213.502" r="6.01586" fill="#A1ADB3"/>
<circle cx="1250.3" cy="213.502" r="6.01586" fill="#A1ADB3"/>
<circle cx="1270.35" cy="213.502" r="6.01586" fill="#A1ADB3"/>
<circle cx="1290.4" cy="213.502" r="6.01586" fill="#A1ADB3"/>
<circle cx="1310.45" cy="213.502" r="6.01586" fill="#A1ADB3"/>
<circle cx="1330.51" cy="213.502" r="6.01586" fill="#A1ADB3"/>
<circle cx="1350.56" cy="213.502" r="6.01586" fill="#A1ADB3"/>
<circle cx="1370.61" cy="213.502" r="6.01586" fill="#A1ADB3"/>
<circle cx="1230.24" cy="233.555" r="6.01586" fill="#A1ADB3"/>
<circle cx="1250.3" cy="233.555" r="6.01586" fill="#A1ADB3"/>
<circle cx="1270.35" cy="233.555" r="6.01586" fill="#A1ADB3"/>
<circle cx="1290.4" cy="233.555" r="6.01586" fill="#A1ADB3"/>
<circle cx="1310.45" cy="233.555" r="6.01586" fill="#A1ADB3"/>
<circle cx="1330.51" cy="233.555" r="6.01586" fill="#A1ADB3"/>
<circle cx="1350.56" cy="233.555" r="6.01586" fill="#A1ADB3"/>
<circle cx="1370.61" cy="233.555" r="6.01586" fill="#A1ADB3"/>
<circle cx="1230.24" cy="253.608" r="6.01586" fill="#A1ADB3"/>
<circle cx="1250.3" cy="253.608" r="6.01586" fill="#A1ADB3"/>
<circle cx="1270.35" cy="253.608" r="6.01586" fill="#A1ADB3"/>
<circle cx="1290.4" cy="253.608" r="6.01586" fill="#A1ADB3"/>
<circle cx="1310.45" cy="253.608" r="6.01586" fill="#A1ADB3"/>
<circle cx="1330.51" cy="253.608" r="6.01586" fill="#A1ADB3"/>
<circle cx="1350.56" cy="253.608" r="6.01586" fill="#A1ADB3"/>
<circle cx="1370.61" cy="253.608" r="6.01586" fill="#A1ADB3"/>
<circle cx="1230.24" cy="273.66" r="6.01586" fill="#A1ADB3"/>
<circle cx="1250.3" cy="273.66" r="6.01586" fill="#A1ADB3"/>
<circle cx="1270.35" cy="273.66" r="6.01586" fill="#A1ADB3"/>
<circle cx="1290.4" cy="273.66" r="6.01586" fill="#A1ADB3"/>
<circle cx="1310.45" cy="273.66" r="6.01586" fill="#A1ADB3"/>
<circle cx="1330.51" cy="273.66" r="6.01586" fill="#A1ADB3"/>
<circle cx="1350.56" cy="273.66" r="6.01586" fill="#A1ADB3"/>
<circle cx="1370.61" cy="273.66" r="6.01586" fill="#A1ADB3"/>
<circle cx="1230.24" cy="293.714" r="6.01586" fill="#A1ADB3"/>
<circle cx="1250.3" cy="293.714" r="6.01586" fill="#A1ADB3"/>
<circle cx="1270.35" cy="293.714" r="6.01586" fill="#A1ADB3"/>
<circle cx="1290.4" cy="293.714" r="6.01586" fill="#A1ADB3"/>
<circle cx="1310.45" cy="293.714" r="6.01586" fill="#A1ADB3"/>
<circle cx="1330.51" cy="293.714" r="6.01586" fill="#A1ADB3"/>
<circle cx="1350.56" cy="293.714" r="6.01586" fill="#A1ADB3"/>
<circle cx="1370.61" cy="293.714" r="6.01586" fill="#A1ADB3"/>
<circle cx="1230.24" cy="313.767" r="6.01586" fill="#A1ADB3"/>
<circle cx="1250.3" cy="313.767" r="6.01586" fill="#A1ADB3"/>
<circle cx="1270.35" cy="313.767" r="6.01586" fill="#A1ADB3"/>
<circle cx="1290.4" cy="313.767" r="6.01586" fill="#A1ADB3"/>
<circle cx="1310.45" cy="313.767" r="6.01586" fill="#A1ADB3"/>
<circle cx="1330.51" cy="313.767" r="6.01586" fill="#A1ADB3"/>
<circle cx="1350.56" cy="313.767" r="6.01586" fill="#A1ADB3"/>
<circle cx="1370.61" cy="313.767" r="6.01586" fill="#A1ADB3"/>
</g>
<defs>
<clipPath id="clip0_368_60881">
<rect width="1443.81" height="657.788" fill="white" transform="translate(0 2.98047)"/>
</clipPath>
<clipPath id="clip1_368_60881">
<rect width="24.0634" height="24.0635" fill="white" transform="translate(935.465 334.854) rotate(180)"/>
</clipPath>
<clipPath id="clip2_368_60881">
<rect width="24.0634" height="24.0635" fill="white" transform="translate(1071.8 310.792)"/>
</clipPath>
</defs>
</svg>
