<svg width="18" height="10" viewBox="0 0 18 10" fill="none" xmlns="http://www.w3.org/2000/svg">
<path d="M17.1913 0.945219C17.134 0.808717 17.0375 0.692254 16.914 0.610505C16.7905 0.528757 16.6457 0.48538 16.4976 0.485844L1.49758 0.485844C1.34951 0.48538 1.20462 0.528757 1.08116 0.610505C0.957707 0.692254 0.86121 0.808717 0.803833 0.945219C0.749799 1.08375 0.736092 1.23475 0.764296 1.38075C0.7925 1.52675 0.861464 1.66178 0.963208 1.77022L8.46321 9.27022C8.60656 9.40883 8.79817 9.48632 8.99758 9.48632C9.19699 9.48632 9.3886 9.40883 9.53196 9.27022L17.032 1.77022C17.1337 1.66178 17.2027 1.52675 17.2309 1.38075C17.2591 1.23475 17.2454 1.08375 17.1913 0.945219Z" fill="#4B5563"/>
</svg>
