<svg width="54" height="54" viewBox="0 0 54 54" fill="none" xmlns="http://www.w3.org/2000/svg">
<path d="M32.7873 31.5599L36.5207 25.1066C36.7607 24.7066 36.654 24.1999 36.3073 23.9066L32.3607 20.8133C32.4407 20.2266 32.494 19.6133 32.494 18.9999C32.494 18.3866 32.4407 17.7733 32.3607 17.1599L36.3073 14.0666C36.654 13.7733 36.7607 13.2666 36.5207 12.8666L32.7873 6.41325C32.5473 6.01325 32.0673 5.85325 31.6407 6.01325L27.0007 7.87992C26.0407 7.13325 25.0007 6.51992 23.854 6.03992L23.1607 1.10659C23.1159 0.890911 22.9991 0.696868 22.8295 0.556334C22.6599 0.415799 22.4476 0.337131 22.2273 0.333252H14.7607C14.3073 0.333252 13.9073 0.679918 13.8273 1.13325L13.134 6.06659C12.014 6.54659 10.9473 7.15992 9.98733 7.90659L5.34733 6.03992C4.92066 5.87992 4.44066 6.03992 4.20066 6.43992L0.467327 12.8933C0.227327 13.2933 0.333994 13.7999 0.68066 14.0933L4.62733 17.1866C4.54733 17.7733 4.49399 18.3866 4.49399 18.9999C4.49399 19.6133 4.54733 20.2266 4.62733 20.8399L0.68066 23.9333C0.333994 24.2266 0.227327 24.7333 0.467327 25.1333L4.20066 31.5866C4.44066 31.9866 4.92066 32.1466 5.34733 31.9866L9.98733 30.1199C10.9473 30.8666 11.9873 31.4799 13.134 31.9599L13.8273 36.8933C13.9073 37.3199 14.3073 37.6666 14.7607 37.6666H22.2273C22.6807 37.6666 23.0807 37.3199 23.1607 36.8666L23.854 31.9333C24.974 31.4533 26.0407 30.8399 27.0007 30.0933L31.6407 31.9599C32.0673 32.1199 32.5473 31.9599 32.7873 31.5599ZM18.494 24.3333C15.5607 24.3333 13.1607 21.9333 13.1607 18.9999C13.1607 16.0666 15.5607 13.6666 18.494 13.6666C21.4273 13.6666 23.8273 16.0666 23.8273 18.9999C23.8273 21.9333 21.4273 24.3333 18.494 24.3333ZM53.454 44.7866L50.894 42.8133C50.9473 42.4399 51.0007 42.0399 51.0007 41.6399C51.0007 41.2399 50.974 40.8399 50.894 40.4666L53.4273 38.4933C53.6407 38.3066 53.7207 37.9866 53.5607 37.7199L51.1607 33.5866C51.0273 33.3199 50.7073 33.2399 50.414 33.3199L47.454 34.5199C46.8407 34.0399 46.174 33.6399 45.4273 33.3466L44.974 30.1999C44.9635 30.0574 44.9003 29.9239 44.7968 29.8253C44.6933 29.7267 44.5569 29.6702 44.414 29.6666H39.6407C39.3473 29.6666 39.0807 29.8799 39.054 30.1733L38.6007 33.3199C37.8807 33.6399 37.1873 34.0133 36.574 34.4933L33.614 33.2933C33.4781 33.2421 33.3285 33.2409 33.1918 33.2897C33.0551 33.3385 32.9401 33.4343 32.8673 33.5599L30.4673 37.6933C30.334 37.9599 30.3607 38.2799 30.6007 38.4666L33.134 40.4399C33.024 41.2183 33.024 42.0082 33.134 42.7866L30.6007 44.7599C30.3873 44.9466 30.3073 45.2666 30.4673 45.5333L32.8673 49.6666C33.0007 49.9333 33.3207 50.0133 33.614 49.9333L36.574 48.7333C37.1873 49.2133 37.854 49.6133 38.6007 49.9066L39.054 53.0533C39.1073 53.3466 39.3473 53.5599 39.6407 53.5599H44.414C44.7073 53.5599 44.974 53.3466 45.0007 53.0533L45.454 49.9066C46.174 49.5866 46.8673 49.2133 47.454 48.7333L50.4407 49.9333C50.7073 50.0399 51.0273 49.9333 51.1873 49.6666L53.5873 45.5333C53.7473 45.2933 53.6673 44.9733 53.454 44.7866ZM42.014 45.2133C41.0589 45.2129 40.143 44.8331 39.4679 44.1575C38.7927 43.4819 38.4136 42.5657 38.414 41.6106C38.4144 40.6555 38.7941 39.7396 39.4697 39.0644C40.1454 38.3893 41.0615 38.0102 42.0167 38.0106C42.9718 38.0109 43.8877 38.3907 44.5628 39.0663C45.2379 39.742 45.617 40.6581 45.6167 41.6133C45.6163 42.5684 45.2365 43.4843 44.5609 44.1594C43.8853 44.8345 42.9691 45.2136 42.014 45.2133Z" fill="#E29A13"/>
</svg>
