<svg width="162" height="48" viewBox="0 0 162 48" fill="none" xmlns="http://www.w3.org/2000/svg">
<g clip-path="url(#clip0_368_60218)">
<path d="M149.101 3.39297e-05H12.9081C12.4116 3.39297e-05 11.9211 3.39298e-05 11.426 0.00243393C11.0115 0.00483393 10.6004 0.0118059 10.1819 0.0176739C9.27288 0.0271561 8.36596 0.0980454 7.46905 0.229726C6.57341 0.364273 5.70583 0.617933 4.89564 0.982126C4.08645 1.3494 3.34706 1.82663 2.70431 2.39652C2.05819 2.9648 1.51959 3.62165 1.10924 4.34183C0.697749 5.06056 0.412423 5.83076 0.263111 6.62581C0.11238 7.41986 0.0312706 8.22306 0.0205101 9.02821C0.00794681 9.39613 0.00662009 9.76527 0 10.1332V37.8703C0.00662009 38.243 0.00794681 38.6039 0.0205101 38.9766C0.0312739 39.7817 0.112384 40.5849 0.263111 41.3789C0.41201 42.1744 0.697354 42.9451 1.10924 43.6641C1.51941 44.3819 2.05808 45.0361 2.70431 45.6012C3.34463 46.1736 4.08449 46.6512 4.89564 47.0157C5.70582 47.3808 6.57331 47.636 7.46905 47.7726C8.36611 47.9033 9.27294 47.9742 10.1819 47.9848C10.6004 47.993 11.0115 47.9976 11.426 47.9976C11.9211 48 12.4116 48 12.9081 48H149.101C149.587 48 150.082 48 150.568 47.9976C150.981 47.9976 151.404 47.993 151.816 47.9848C152.723 47.9747 153.629 47.9038 154.524 47.7726C155.422 47.635 156.293 47.3799 157.107 47.0157C157.917 46.651 158.657 46.1735 159.296 45.6012C159.941 45.0339 160.481 44.3802 160.896 43.6641C161.305 42.9445 161.587 42.174 161.734 41.3789C161.885 40.5848 161.969 39.7818 161.985 38.9766C161.991 38.6039 161.991 38.243 161.991 37.8703C162.001 37.4344 162.001 37.0008 162.001 36.5578V11.4434C162.001 11.0039 162.001 10.568 161.991 10.1332C161.991 9.76527 161.991 9.39613 161.985 9.02816C161.969 8.22294 161.885 7.41992 161.734 6.62576C161.587 5.83117 161.304 5.06104 160.896 4.34178C160.06 2.89827 158.735 1.72326 157.107 0.982018C156.293 0.618715 155.422 0.365122 154.524 0.229618C153.629 0.0973573 152.723 0.0264432 151.816 0.0175059C151.404 0.0116499 150.981 0.00461793 150.568 0.00227793C150.082 -0.00012207 149.587 -0.00012207 149.101 -0.00012207V3.39297e-05Z" fill="#374151"/>
<path d="M11.3153 46.9534C10.9021 46.9534 10.4989 46.9487 10.089 46.9406C9.23973 46.9308 8.39248 46.8653 7.55416 46.7448C6.77247 46.6257 6.01522 46.404 5.30739 46.0872C4.60605 45.773 3.96637 45.361 3.41286 44.867C2.85134 44.3788 2.38385 43.8126 2.02891 43.1909C1.67006 42.565 1.42172 41.8942 1.29253 41.2018C1.15301 40.4578 1.07753 39.7055 1.06673 38.9513C1.05813 38.6982 1.04688 37.8554 1.04688 37.8554V10.1289C1.04688 10.1289 1.05886 9.29906 1.0668 9.05526C1.07714 8.30232 1.15218 7.55117 1.29128 6.8083C1.42071 6.11398 1.66924 5.44124 2.02829 4.81337C2.38192 4.19201 2.84682 3.62539 3.40496 3.13548C3.96247 2.6409 4.60419 2.2268 5.30673 1.90826C6.01293 1.59245 6.76875 1.37237 7.54886 1.25539C8.38993 1.13365 9.24013 1.06782 10.0923 1.05848L11.316 1.04382H150.684L151.923 1.05907C152.767 1.06795 153.61 1.13318 154.443 1.25422C155.231 1.37266 155.995 1.59428 156.709 1.91177C158.116 2.55372 159.262 3.56935 159.984 4.8163C160.337 5.43984 160.582 6.10709 160.71 6.79541C160.851 7.54437 160.929 8.30143 160.946 9.06054C160.949 9.40045 160.949 9.76556 160.949 10.1289C160.96 10.579 160.96 11.0074 160.96 11.4394V36.559C160.96 36.9951 160.96 37.4205 160.949 37.8495C160.949 38.2398 160.949 38.5974 160.944 38.9654C160.928 39.7109 160.851 40.4545 160.712 41.1901C160.586 41.8875 160.339 42.5635 159.98 43.1945C159.623 43.8095 159.158 44.3708 158.603 44.8577C158.049 45.3543 157.408 45.7687 156.705 46.0849C155.993 46.4042 155.23 46.6266 154.443 46.7448C153.605 46.866 152.757 46.9314 151.908 46.9406C151.511 46.9487 151.095 46.9534 150.691 46.9534L149.221 46.9558L11.3153 46.9534Z" fill="#374151"/>
<path d="M39.3565 24.3607C39.3694 23.3591 39.6355 22.377 40.1299 21.5059C40.6243 20.6347 41.3311 19.9028 42.1844 19.3782C41.6423 18.604 40.9272 17.9669 40.0958 17.5174C39.2644 17.0679 38.3396 16.8185 37.395 16.789C35.3799 16.5775 33.4263 17.9948 32.3995 17.9948C31.3527 17.9948 29.7717 16.81 28.0692 16.845C26.968 16.8806 25.8948 17.2008 24.9541 17.7745C24.0135 18.3481 23.2375 19.1557 22.7017 20.1184C20.3809 24.1366 22.112 30.0418 24.3351 33.2897C25.4474 34.8802 26.7474 36.6567 28.4483 36.5937C30.1128 36.5247 30.7345 35.5323 32.7436 35.5323C34.7342 35.5323 35.3174 36.5937 37.0529 36.5536C38.8389 36.5247 39.9643 34.9562 41.0375 33.3507C41.8367 32.2174 42.4517 30.965 42.8596 29.6397C41.822 29.2008 40.9365 28.4662 40.3135 27.5274C39.6906 26.5887 39.3577 25.4873 39.3565 24.3607Z" fill="white"/>
<path d="M36.0775 14.6531C37.0514 13.484 37.5312 11.9814 37.415 10.4644C35.9272 10.6206 34.5528 11.3317 33.5658 12.4559C33.0833 13.0051 32.7137 13.644 32.4782 14.3361C32.2427 15.0283 32.1459 15.76 32.1934 16.4896C32.9376 16.4972 33.6738 16.3359 34.3466 16.0178C35.0194 15.6997 35.6112 15.2331 36.0775 14.6531Z" fill="white"/>
<path d="M60.3954 32.5678H54.7153L53.3512 36.5956H50.9453L56.3254 21.694H58.8251L64.2052 36.5956H61.7583L60.3954 32.5678ZM55.3035 30.7092H59.806L57.5864 24.1725H57.5243L55.3035 30.7092Z" fill="white"/>
<path d="M75.824 31.1639C75.824 34.54 74.0169 36.7092 71.2899 36.7092C70.5991 36.7453 69.9121 36.5862 69.3076 36.25C68.703 35.9138 68.2053 35.4142 67.8715 34.8084H67.8199V40.1896H65.5898V25.731H67.7485V27.5381H67.7895C68.1387 26.9351 68.6447 26.4381 69.2539 26.0999C69.8631 25.7617 70.5525 25.5949 71.2489 25.6174C74.0063 25.6174 75.824 27.7971 75.824 31.1639ZM73.5317 31.1639C73.5317 28.9643 72.395 27.5181 70.6606 27.5181C68.9567 27.5181 67.8106 28.9947 67.8106 31.1639C67.8106 33.3529 68.9567 34.8189 70.6606 34.8189C72.395 34.8189 73.5317 33.3834 73.5317 31.1639Z" fill="white"/>
<path d="M87.7829 31.164C87.7829 34.5401 85.9759 36.7093 83.2489 36.7093C82.5581 36.7454 81.8711 36.5863 81.2666 36.2501C80.662 35.914 80.1643 35.4143 79.8305 34.8085H79.7789V40.1897H77.5488V25.7311H79.7074V27.5382H79.7484C80.0976 26.9352 80.6037 26.4382 81.2128 26.1C81.822 25.7618 82.5115 25.595 83.2079 25.6175C85.9653 25.6175 87.7829 27.7972 87.7829 31.164ZM85.4907 31.164C85.4907 28.9644 84.354 27.5183 82.6196 27.5183C80.9157 27.5183 79.7696 28.9948 79.7696 31.164C79.7696 33.353 80.9157 34.819 82.6196 34.819C84.354 34.819 85.4907 33.3835 85.4907 31.164H85.4907Z" fill="white"/>
<path d="M95.6852 32.4437C95.8505 33.9214 97.286 34.8917 99.2477 34.8917C101.127 34.8917 102.48 33.9214 102.48 32.5889C102.48 31.4323 101.664 30.7397 99.7329 30.2651L97.8016 29.7999C95.0653 29.1389 93.795 27.8592 93.795 25.7827C93.795 23.2116 96.0356 21.4456 99.2173 21.4456C102.366 21.4456 104.525 23.2116 104.597 25.7827H102.346C102.211 24.2956 100.982 23.3979 99.1856 23.3979C97.3891 23.3979 96.1598 24.3061 96.1598 25.628C96.1598 26.6815 96.945 27.3014 98.8657 27.776L100.507 28.1791C103.565 28.9022 104.835 30.1303 104.835 32.31C104.835 35.0979 102.615 36.844 99.0825 36.844C95.7777 36.844 93.5465 35.1389 93.4023 32.4436L95.6852 32.4437Z" fill="white"/>
<path d="M109.648 23.1603V25.7314H111.714V27.4974H109.648V33.4868C109.648 34.4173 110.062 34.8509 110.97 34.8509C111.216 34.8466 111.46 34.8294 111.704 34.7993V36.5548C111.296 36.6311 110.881 36.6656 110.465 36.6579C108.266 36.6579 107.408 35.8317 107.408 33.7247V27.4974H105.828V25.7314H107.408V23.1603H109.648Z" fill="white"/>
<path d="M112.91 31.1638C112.91 27.7455 114.923 25.5974 118.063 25.5974C121.213 25.5974 123.217 27.7454 123.217 31.1638C123.217 34.5916 121.223 36.7302 118.063 36.7302C114.903 36.7302 112.91 34.5915 112.91 31.1638ZM120.945 31.1638C120.945 28.8189 119.87 27.4349 118.063 27.4349C116.256 27.4349 115.182 28.8294 115.182 31.1638C115.182 33.5181 116.256 34.8916 118.063 34.8916C119.87 34.8916 120.945 33.5181 120.945 31.1638H120.945Z" fill="white"/>
<path d="M125.057 25.7313H127.184V27.5805H127.235C127.379 27.003 127.717 26.4926 128.193 26.1351C128.669 25.7776 129.254 25.5949 129.849 25.6176C130.106 25.6167 130.362 25.6446 130.613 25.7008V27.7868C130.288 27.6876 129.95 27.6421 129.611 27.652C129.287 27.6389 128.964 27.696 128.664 27.8194C128.364 27.9429 128.094 28.1298 127.874 28.3673C127.653 28.6047 127.486 28.8872 127.385 29.1952C127.284 29.5032 127.25 29.8294 127.287 30.1516V36.5957H125.057L125.057 25.7313Z" fill="white"/>
<path d="M140.894 33.4048C140.594 35.3771 138.674 36.7306 136.216 36.7306C133.055 36.7306 131.094 34.613 131.094 31.2157C131.094 27.8079 133.066 25.5978 136.122 25.5978C139.128 25.5978 141.018 27.6626 141.018 30.9568V31.7208H133.345V31.8556C133.31 32.2554 133.36 32.6582 133.492 33.0372C133.624 33.4162 133.835 33.7628 134.112 34.0538C134.388 34.3449 134.723 34.5738 135.095 34.7254C135.467 34.8769 135.866 34.9477 136.268 34.9329C136.795 34.9823 137.323 34.8602 137.776 34.5849C138.228 34.3096 138.579 33.8957 138.777 33.4048L140.894 33.4048ZM133.355 30.1622H138.787C138.807 29.8027 138.753 29.4429 138.627 29.1055C138.501 28.768 138.307 28.4602 138.057 28.2013C137.807 27.9424 137.506 27.738 137.173 27.6009C136.84 27.4638 136.482 27.3971 136.122 27.4048C135.759 27.4026 135.399 27.4724 135.063 27.6101C134.727 27.7478 134.422 27.9507 134.164 28.207C133.907 28.4634 133.703 28.7682 133.564 29.1037C133.426 29.4393 133.355 29.7991 133.355 30.1622V30.1622Z" fill="white"/>
<path d="M55.0258 10.4777C55.4933 10.4442 55.9625 10.5148 56.3994 10.6845C56.8364 10.8542 57.2302 11.1188 57.5525 11.4592C57.8748 11.7995 58.1176 12.2072 58.2632 12.6527C58.4089 13.0982 58.4539 13.5705 58.395 14.0355C58.395 16.323 57.1586 17.6379 55.0258 17.6379H52.4395V10.4777H55.0258ZM53.5516 16.6253H54.9016C55.2357 16.6453 55.57 16.5905 55.8803 16.465C56.1905 16.3394 56.4689 16.1463 56.695 15.8996C56.9212 15.653 57.0896 15.3589 57.1878 15.039C57.2861 14.7191 57.3117 14.3812 57.2629 14.0501C57.3082 13.7203 57.2799 13.3846 57.1802 13.067C57.0804 12.7494 56.9117 12.4578 56.686 12.2131C56.4603 11.9684 56.1833 11.7766 55.8748 11.6515C55.5663 11.5264 55.234 11.4711 54.9016 11.4896H53.5516V16.6253Z" fill="white"/>
<path d="M59.6507 14.9335C59.6168 14.5784 59.6574 14.2202 59.77 13.8817C59.8826 13.5432 60.0647 13.232 60.3046 12.968C60.5446 12.704 60.837 12.4931 61.1633 12.3488C61.4895 12.2044 61.8423 12.1299 62.199 12.1299C62.5557 12.1299 62.9085 12.2044 63.2347 12.3488C63.561 12.4931 63.8534 12.704 64.0933 12.968C64.3333 13.232 64.5154 13.5432 64.628 13.8817C64.7406 14.2202 64.7812 14.5784 64.7472 14.9335C64.7819 15.289 64.7417 15.6478 64.6294 15.9868C64.5171 16.3258 64.3351 16.6376 64.0951 16.9021C63.8551 17.1666 63.5624 17.378 63.2359 17.5226C62.9093 17.6673 62.5561 17.742 62.199 17.742C61.8418 17.742 61.4886 17.6673 61.1621 17.5226C60.8355 17.378 60.5429 17.1666 60.3029 16.9021C60.0629 16.6376 59.8809 16.3258 59.7686 15.9868C59.6562 15.6478 59.6161 15.289 59.6507 14.9335ZM63.6504 14.9335C63.6504 13.7623 63.1242 13.0773 62.2007 13.0773C61.2738 13.0773 60.7523 13.7623 60.7523 14.9335C60.7523 16.1142 61.2738 16.7939 62.2007 16.7939C63.1242 16.7939 63.6504 16.1095 63.6504 14.9335H63.6504Z" fill="white"/>
<path d="M71.5223 17.6373H70.4161L69.2993 13.6576H69.2149L68.1028 17.6373H67.007L65.5176 12.2338H66.5992L67.5672 16.357H67.6469L68.7578 12.2338H69.7809L70.8918 16.357H70.9762L71.9395 12.2338H73.0059L71.5223 17.6373Z" fill="white"/>
<path d="M74.2578 12.234H75.2844V13.0924H75.3641C75.4993 12.7841 75.7273 12.5257 76.0163 12.3531C76.3054 12.1805 76.6411 12.1024 76.9766 12.1297C77.2395 12.1099 77.5035 12.1496 77.749 12.2457C77.9946 12.3418 78.2153 12.4919 78.3949 12.685C78.5745 12.878 78.7084 13.1089 78.7867 13.3607C78.8649 13.6125 78.8855 13.8786 78.8469 14.1395V17.6375H77.7805V14.4073C77.7805 13.5389 77.4032 13.1071 76.6145 13.1071C76.436 13.0987 76.2578 13.1291 76.0921 13.1961C75.9264 13.2631 75.7772 13.3651 75.6547 13.4952C75.5321 13.6253 75.4391 13.7803 75.3821 13.9496C75.3251 14.119 75.3053 14.2987 75.3242 14.4764V17.6375H74.2578L74.2578 12.234Z" fill="white"/>
<path d="M80.5488 10.1246H81.6152V17.6375H80.5488V10.1246Z" fill="white"/>
<path d="M83.096 14.9336C83.0621 14.5785 83.1027 14.2202 83.2153 13.8817C83.328 13.5432 83.5101 13.232 83.7501 12.968C83.99 12.704 84.2825 12.4931 84.6088 12.3488C84.935 12.2044 85.2878 12.1299 85.6446 12.1299C86.0013 12.1299 86.3541 12.2044 86.6804 12.3488C87.0066 12.4931 87.2991 12.704 87.5391 12.968C87.779 13.232 87.9612 13.5432 88.0738 13.8817C88.1864 14.2202 88.2271 14.5785 88.1931 14.9336C88.2277 15.2891 88.1875 15.6479 88.0752 15.9869C87.9628 16.326 87.7808 16.6377 87.5408 16.9022C87.3008 17.1667 87.0081 17.3781 86.6815 17.5227C86.3549 17.6673 86.0017 17.7421 85.6446 17.7421C85.2874 17.7421 84.9342 17.6673 84.6076 17.5227C84.2811 17.3781 83.9884 17.1667 83.7484 16.9022C83.5083 16.6377 83.3263 16.326 83.214 15.9869C83.1016 15.6479 83.0614 15.2891 83.096 14.9336ZM87.0957 14.9336C87.0957 13.7624 86.5695 13.0774 85.646 13.0774C84.7191 13.0774 84.1976 13.7624 84.1976 14.9337C84.1976 16.1143 84.7191 16.794 85.646 16.794C86.5695 16.794 87.0957 16.1096 87.0957 14.9336H87.0957Z" fill="white"/>
<path d="M89.3164 16.1096C89.3164 15.1369 90.0406 14.5762 91.3262 14.4965L92.7899 14.4121V13.9457C92.7899 13.375 92.4125 13.0527 91.6836 13.0527C91.0883 13.0527 90.6758 13.2713 90.5574 13.6533H89.525C89.634 12.7252 90.507 12.1299 91.7328 12.1299C93.0875 12.1299 93.8516 12.8043 93.8516 13.9457V17.6377H92.825V16.8783H92.7407C92.5694 17.1507 92.3289 17.3728 92.0438 17.5218C91.7586 17.6709 91.439 17.7416 91.1176 17.7267C90.8908 17.7503 90.6615 17.7261 90.4446 17.6557C90.2276 17.5852 90.0279 17.4701 89.8582 17.3178C89.6885 17.1654 89.5526 16.9792 89.4593 16.7711C89.366 16.563 89.3173 16.3376 89.3164 16.1096ZM92.7899 15.6478V15.1961L91.4703 15.2805C90.7262 15.3303 90.3887 15.5834 90.3887 16.0598C90.3887 16.5461 90.8105 16.8291 91.3907 16.8291C91.5607 16.8463 91.7324 16.8291 91.8956 16.7786C92.0588 16.7281 92.2101 16.6453 92.3407 16.5351C92.4712 16.4249 92.5783 16.2895 92.6554 16.1371C92.7326 15.9847 92.7783 15.8183 92.7899 15.6478Z" fill="white"/>
<path d="M95.2539 14.9334C95.2539 13.226 96.1317 12.1444 97.4969 12.1444C97.8346 12.1288 98.1698 12.2097 98.4632 12.3776C98.7566 12.5454 98.9962 12.7934 99.1539 13.0924H99.2336V10.1246H100.3V17.6375H99.2782V16.7838H99.1938C99.0239 17.0808 98.7759 17.3256 98.4768 17.4918C98.1777 17.658 97.8388 17.7392 97.4969 17.7266C96.1223 17.7266 95.2539 16.645 95.2539 14.9334ZM96.3555 14.9334C96.3555 16.0795 96.8958 16.7692 97.7993 16.7692C98.6981 16.7692 99.2536 16.0696 99.2536 14.9381C99.2536 13.812 98.6923 13.1024 97.7993 13.1024C96.9016 13.1024 96.3555 13.7967 96.3555 14.9334H96.3555Z" fill="white"/>
<path d="M104.711 14.9335C104.677 14.5784 104.718 14.2202 104.831 13.8817C104.943 13.5432 105.125 13.232 105.365 12.968C105.605 12.704 105.898 12.4931 106.224 12.3488C106.55 12.2044 106.903 12.1299 107.26 12.1299C107.616 12.1299 107.969 12.2044 108.295 12.3488C108.621 12.4931 108.914 12.704 109.154 12.968C109.394 13.232 109.576 13.5432 109.689 13.8817C109.801 14.2202 109.842 14.5784 109.808 14.9335C109.842 15.289 109.802 15.6478 109.69 15.9868C109.578 16.3258 109.396 16.6376 109.156 16.9021C108.916 17.1666 108.623 17.378 108.296 17.5226C107.97 17.6673 107.617 17.742 107.26 17.742C106.902 17.742 106.549 17.6673 106.223 17.5226C105.896 17.378 105.603 17.1666 105.363 16.9021C105.123 16.6376 104.941 16.3258 104.829 15.9868C104.717 15.6478 104.677 15.289 104.711 14.9335ZM108.711 14.9335C108.711 13.7623 108.185 13.0773 107.261 13.0773C106.334 13.0773 105.813 13.7623 105.813 14.9335C105.813 16.1142 106.334 16.7939 107.261 16.7939C108.185 16.7939 108.711 16.1095 108.711 14.9335Z" fill="white"/>
<path d="M111.238 12.234H112.265V13.0924H112.345C112.48 12.7841 112.708 12.5257 112.997 12.3531C113.286 12.1805 113.622 12.1024 113.957 12.1297C114.22 12.1099 114.484 12.1496 114.73 12.2457C114.975 12.3418 115.196 12.4919 115.375 12.685C115.555 12.878 115.689 13.1089 115.767 13.3607C115.845 13.6125 115.866 13.8786 115.827 14.1395V17.6375H114.761V14.4073C114.761 13.5389 114.384 13.1071 113.595 13.1071C113.416 13.0987 113.238 13.1291 113.073 13.1961C112.907 13.2631 112.758 13.3651 112.635 13.4952C112.513 13.6253 112.42 13.7803 112.363 13.9496C112.306 14.119 112.286 14.2987 112.305 14.4764V17.6375H111.238V12.234Z" fill="white"/>
<path d="M121.853 10.8883V12.2582H123.024V13.1565H121.853V15.935C121.853 16.501 122.086 16.7488 122.617 16.7488C122.753 16.7484 122.889 16.7402 123.024 16.7242V17.6125C122.832 17.6468 122.638 17.665 122.444 17.667C121.258 17.667 120.786 17.2498 120.786 16.208V13.1564H119.928V12.2582H120.786V10.8883H121.853Z" fill="white"/>
<path d="M124.48 10.1246H125.538V13.1024H125.622C125.764 12.7912 125.998 12.5313 126.293 12.3581C126.588 12.1848 126.929 12.1067 127.269 12.1344C127.531 12.1202 127.793 12.1638 128.035 12.2623C128.278 12.3607 128.496 12.5115 128.674 12.704C128.852 12.8964 128.985 13.1256 129.064 13.3754C129.142 13.6251 129.165 13.8892 129.13 14.1489V17.6375H128.063V14.4119C128.063 13.5488 127.661 13.1117 126.907 13.1117C126.724 13.0967 126.54 13.1219 126.367 13.1856C126.195 13.2492 126.038 13.3498 125.909 13.4803C125.779 13.6108 125.68 13.768 125.617 13.941C125.555 14.1139 125.531 14.2985 125.547 14.4817V17.6375H124.481L124.48 10.1246Z" fill="white"/>
<path d="M135.349 16.1788C135.204 16.6726 134.89 17.0998 134.462 17.3856C134.034 17.6714 133.519 17.7976 133.007 17.7421C132.651 17.7515 132.298 17.6833 131.971 17.5423C131.644 17.4012 131.351 17.1907 131.114 16.9253C130.876 16.66 130.699 16.3461 130.595 16.0055C130.491 15.6649 130.463 15.3058 130.511 14.953C130.464 14.5992 130.493 14.2392 130.597 13.8976C130.701 13.556 130.877 13.2407 131.113 12.973C131.349 12.7053 131.64 12.4915 131.966 12.3461C132.292 12.2006 132.646 12.1269 133.003 12.13C134.506 12.13 135.413 13.1572 135.413 14.854V15.2261H131.598V15.2858C131.581 15.4841 131.606 15.6837 131.671 15.8718C131.736 16.0599 131.839 16.2324 131.975 16.3781C132.11 16.5239 132.275 16.6397 132.458 16.7182C132.64 16.7967 132.838 16.836 133.037 16.8338C133.292 16.8645 133.55 16.8185 133.779 16.7019C134.008 16.5852 134.197 16.4031 134.322 16.1788L135.349 16.1788ZM131.598 14.4374H134.327C134.34 14.256 134.316 14.0739 134.255 13.9026C134.193 13.7314 134.097 13.5748 133.972 13.443C133.847 13.3111 133.695 13.207 133.527 13.1371C133.359 13.0673 133.179 13.0334 132.997 13.0376C132.812 13.0353 132.629 13.0699 132.459 13.1394C132.288 13.209 132.132 13.312 132.002 13.4425C131.872 13.5729 131.769 13.7282 131.699 13.899C131.63 14.0699 131.595 14.253 131.598 14.4374H131.598Z" fill="white"/>
</g>
<defs>
<clipPath id="clip0_368_60218">
<rect width="162.001" height="48" fill="white"/>
</clipPath>
</defs>
</svg>
