<svg width="162" height="48" viewBox="0 0 162 48" fill="none" xmlns="http://www.w3.org/2000/svg">
<g clip-path="url(#clip0_368_60197)">
<path d="M156.002 0H6.00197C2.68825 0 0.00195312 2.68628 0.00195312 5.99997V41.9998C0.00195312 45.3135 2.68825 47.9998 6.00197 47.9998H156.002C159.316 47.9998 162.002 45.3135 162.002 41.9998V5.99997C162.002 2.68628 159.316 0 156.002 0Z" fill="#374151"/>
<path d="M156.002 0.959877C157.339 0.961421 158.62 1.49295 159.565 2.43785C160.509 3.38275 161.041 4.66385 161.042 6.00009V41.9999C161.041 43.3361 160.509 44.6172 159.565 45.5621C158.62 46.507 157.339 47.0386 156.002 47.0401H6.00197C4.66571 47.0386 3.38462 46.5071 2.43976 45.5622C1.4949 44.6173 0.963433 43.3362 0.961956 41.9999V6.00009C0.963411 4.66383 1.49487 3.38271 2.43973 2.43781C3.3846 1.49291 4.6657 0.961396 6.00197 0.959877H156.002ZM156.002 0.00012207H6.00197C4.4121 0.00477576 2.88867 0.638408 1.76446 1.76261C0.640244 2.88682 0.00660686 4.41023 0.00195313 6.00009L0.00195312 41.9999C0.00660686 43.5898 0.640244 45.1132 1.76446 46.2374C2.88867 47.3616 4.4121 47.9952 6.00197 47.9999H156.002C157.592 47.9952 159.116 47.3616 160.24 46.2374C161.364 45.1132 161.998 43.5898 162.002 41.9999V6.00009C161.998 4.41023 161.364 2.88682 160.24 1.76261C159.116 0.638408 157.592 0.00477576 156.002 0.00012207Z" fill="#374151"/>
<path d="M56.9051 12.292C56.9269 12.7323 56.8589 13.1725 56.7051 13.5857C56.5514 13.9989 56.3152 14.3765 56.0108 14.6955C55.6698 15.0492 55.2579 15.3269 54.8021 15.5105C54.3463 15.694 53.8569 15.7793 53.3659 15.7607C52.8718 15.7651 52.3817 15.6707 51.9246 15.4831C51.4675 15.2954 51.0525 15.0182 50.704 14.6679C50.3555 14.3175 50.0805 13.9011 49.8953 13.4429C49.7101 12.9848 49.6183 12.4943 49.6254 12.0002C49.6184 11.5061 49.7102 11.0155 49.8954 10.5574C50.0807 10.0992 50.3556 9.68275 50.7041 9.33236C51.0525 8.98197 51.4675 8.70476 51.9246 8.517C52.3817 8.32925 52.8718 8.23474 53.3659 8.23903C53.874 8.2375 54.3769 8.34021 54.8437 8.54083C55.2772 8.71656 55.6631 8.9922 55.9699 9.34531L55.337 9.97866C55.0959 9.69481 54.7927 9.47015 54.4509 9.32203C54.1092 9.17391 53.738 9.10629 53.3659 9.12439C52.9914 9.12245 52.6204 9.19611 52.275 9.34097C51.9297 9.48582 51.6171 9.69888 51.356 9.96739C51.095 10.2359 50.8908 10.5543 50.7557 10.9036C50.6206 11.2529 50.5574 11.6259 50.5699 12.0002C50.561 12.5608 50.7187 13.1115 51.0232 13.5823C51.3276 14.0532 51.765 14.423 52.2799 14.645C52.7949 14.8669 53.3641 14.9309 53.9154 14.8289C54.4668 14.727 54.9754 14.4635 55.3769 14.0721C55.7463 13.674 55.9605 13.1564 55.9804 12.6136H53.3659V11.7488H56.8547C56.8877 11.928 56.9045 12.1098 56.9051 12.292Z" fill="white" stroke="white" stroke-width="0.300148" stroke-miterlimit="10"/>
<path d="M62.434 9.28454H59.1551V11.5673H62.1118V12.4322H59.1551V14.715H62.434V15.5997H58.2305V8.39978H62.434V9.28454Z" fill="white" stroke="white" stroke-width="0.300148" stroke-miterlimit="10"/>
<path d="M66.3352 15.5997H65.4094V9.28454H63.3984V8.39978H68.3462V9.28454H66.3352V15.5997Z" fill="white" stroke="white" stroke-width="0.300148" stroke-miterlimit="10"/>
<path d="M71.9277 15.6V8.40002H72.8523V15.6H71.9277Z" fill="white" stroke="white" stroke-width="0.300148" stroke-miterlimit="10"/>
<path d="M76.9562 15.5997H76.0304V9.28454H74.0195V8.39978H78.9671V9.28454H76.9562V15.5997Z" fill="white" stroke="white" stroke-width="0.300148" stroke-miterlimit="10"/>
<path d="M88.3349 14.6695C87.6341 15.3682 86.6849 15.7606 85.6953 15.7606C84.7057 15.7606 83.7565 15.3682 83.0556 14.6695C82.7089 14.3184 82.4364 13.9011 82.2542 13.4425C82.072 12.9839 81.9839 12.4934 81.9951 12C81.9839 11.5067 82.072 11.0161 82.2542 10.5576C82.4364 10.099 82.7089 9.68168 83.0556 9.33053C83.402 8.98405 83.8134 8.70929 84.2661 8.52197C84.7188 8.33465 85.204 8.23846 85.6939 8.23889C86.1839 8.23933 86.6689 8.33638 87.1213 8.5245C87.5736 8.71262 87.9845 8.98811 88.3303 9.33521C88.6772 9.68543 88.9503 10.1018 89.1333 10.5595C89.3162 11.0173 89.4054 11.5072 89.3955 12C89.4064 12.4933 89.3181 12.9838 89.1359 13.4423C88.9538 13.9009 88.6814 14.3182 88.3349 14.6695ZM83.7388 14.0667C84.2578 14.5848 84.9613 14.8758 85.6947 14.8758C86.4281 14.8758 87.1315 14.5848 87.6506 14.0667C87.9167 13.7942 88.1249 13.4705 88.2625 13.1153C88.4 12.7601 88.4642 12.3807 88.451 12C88.4642 11.6193 88.4 11.2399 88.2625 10.8847C88.1249 10.5295 87.9167 10.2059 87.6506 9.9334C87.1315 9.41525 86.4281 9.12423 85.6947 9.12423C84.9613 9.12423 84.2578 9.41525 83.7388 9.9334C83.473 10.2061 83.2652 10.5298 83.1278 10.885C82.9905 11.2402 82.9265 11.6195 82.9396 12C82.9265 12.3806 82.9905 12.7599 83.1278 13.1151C83.2652 13.4703 83.473 13.794 83.7388 14.0667Z" fill="white" stroke="white" stroke-width="0.300148" stroke-miterlimit="10"/>
<path d="M90.6914 15.6V8.40002H91.8176L95.3168 14.001H95.3567L95.3168 12.6134V8.40002H96.2426V15.6H95.277L91.616 9.7277H91.5762L91.616 11.1153V15.6H90.6914Z" fill="white" stroke="white" stroke-width="0.300148" stroke-miterlimit="10"/>
<path d="M81.7653 26.1016C80.7567 26.1055 79.7718 26.408 78.935 26.9712C78.0983 27.5343 77.4471 28.3327 77.0638 29.2657C76.6805 30.1986 76.5821 31.2242 76.7813 32.213C76.9804 33.2017 77.468 34.1093 78.1826 34.8212C78.8971 35.533 79.8066 36.0172 80.7961 36.2125C81.7856 36.4079 82.8108 36.3057 83.7423 35.9188C84.6738 35.5319 85.4697 34.8777 86.0297 34.0388C86.5896 33.1999 86.8885 32.2139 86.8885 31.2053C86.8984 30.5307 86.7725 29.861 86.5183 29.236C86.2641 28.6111 85.8868 28.0436 85.4088 27.5675C84.9308 27.0913 84.3619 26.7161 83.736 26.4643C83.1101 26.2125 82.4399 26.0892 81.7653 26.1016ZM81.7653 34.2986C81.1442 34.3428 80.524 34.1991 79.9857 33.886C79.4474 33.573 79.0158 33.1051 78.7472 32.5433C78.4785 31.9815 78.3852 31.3519 78.4794 30.7363C78.5736 30.1207 78.8509 29.5478 79.2753 29.0921C79.6997 28.6364 80.2515 28.319 80.8588 28.1812C81.4661 28.0434 82.1008 28.0917 82.6803 28.3197C83.2597 28.5478 83.7571 28.945 84.1077 29.4596C84.4583 29.9743 84.6458 30.5826 84.6458 31.2053C84.6646 31.5987 84.6046 31.9919 84.4692 32.3618C84.3338 32.7316 84.1257 33.0707 83.8573 33.3589C83.5889 33.6471 83.2656 33.8787 82.9063 34.0401C82.547 34.2015 82.1591 34.2894 81.7653 34.2986ZM70.5892 26.1016C69.5806 26.1054 68.5957 26.408 67.7589 26.9711C66.9221 27.5342 66.2709 28.3327 65.8876 29.2656C65.5042 30.1985 65.4059 31.2241 65.605 32.2129C65.8041 33.2017 66.2917 34.1093 67.0063 34.8211C67.7208 35.533 68.6303 36.0172 69.6198 36.2125C70.6093 36.4079 71.6346 36.3057 72.566 35.9188C73.4975 35.5319 74.2935 34.8778 74.8535 34.0389C75.4134 33.2 75.7122 32.2139 75.7122 31.2053C75.7221 30.5307 75.5963 29.861 75.3421 29.2361C75.0879 28.6111 74.7106 28.0437 74.2326 27.5675C73.7546 27.0913 73.1858 26.7162 72.5598 26.4643C71.9339 26.2125 71.2637 26.0892 70.5892 26.1016ZM70.5892 34.2986C69.968 34.3428 69.3479 34.1991 68.8096 33.886C68.2713 33.573 67.8397 33.1051 67.5711 32.5433C67.3024 31.9815 67.2091 31.3519 67.3033 30.7363C67.3975 30.1207 67.6748 29.5478 68.0992 29.0921C68.5236 28.6364 69.0753 28.319 69.6826 28.1812C70.2899 28.0434 70.9247 28.0917 71.5041 28.3197C72.0836 28.5478 72.581 28.945 72.9316 29.4596C73.2822 29.9743 73.4697 30.5826 73.4697 31.2053C73.4885 31.5987 73.4285 31.9919 73.2931 32.3618C73.1577 32.7316 72.9496 33.0707 72.6812 33.3589C72.4128 33.6471 72.0895 33.8788 71.7302 34.0401C71.3709 34.2015 70.9829 34.2894 70.5892 34.2986ZM57.2946 27.6676V29.8328H62.4758C62.4011 30.8483 61.9855 31.8089 61.2965 32.5587C60.7772 33.0879 60.1528 33.5024 59.4636 33.7755C58.7743 34.0485 58.0354 34.174 57.2946 34.1439C55.7801 34.1234 54.3347 33.5074 53.271 32.4292C52.2073 31.351 51.6109 29.8974 51.6109 28.3828C51.6109 26.8683 52.2073 25.4146 53.271 24.3364C54.3347 23.2583 55.7801 22.6423 57.2946 22.6218C58.7492 22.6028 60.1526 23.1585 61.1999 24.1683L62.7271 22.6411C62.0126 21.9337 61.164 21.3761 60.2311 21.001C59.2983 20.6258 58.2999 20.4407 57.2946 20.4565C56.244 20.4412 55.2008 20.6349 54.2257 21.0264C53.2506 21.4179 52.3631 21.9993 51.6147 22.7368C50.8664 23.4744 50.2721 24.3533 49.8665 25.3226C49.4608 26.2919 49.252 27.3321 49.252 28.3828C49.252 29.4335 49.4608 30.4738 49.8665 31.443C50.2721 32.4123 50.8664 33.2913 51.6147 34.0288C52.3631 34.7664 53.2506 35.3478 54.2257 35.7392C55.2008 36.1307 56.244 36.3244 57.2946 36.3091C58.3211 36.3517 59.345 36.1755 60.2983 35.7922C61.2515 35.4089 62.1124 34.8273 62.8237 34.0859C64.0866 32.7074 64.7598 30.8894 64.6991 29.0209C64.704 28.5671 64.6651 28.1139 64.5829 27.6676H57.2946ZM111.665 29.3494C111.358 28.425 110.774 27.6174 109.992 27.0363C109.211 26.4553 108.269 26.1289 107.295 26.1016C106.64 26.1057 105.992 26.2427 105.39 26.5043C104.789 26.766 104.247 27.1469 103.797 27.6239C103.347 28.101 102.999 28.6643 102.772 29.2799C102.546 29.8954 102.448 30.5505 102.482 31.2053C102.467 31.8763 102.588 32.5434 102.836 33.1668C103.085 33.7901 103.457 34.357 103.93 34.8334C104.403 35.3098 104.967 35.686 105.588 35.9395C106.21 36.1931 106.876 36.3188 107.547 36.3091C108.388 36.3138 109.216 36.1096 109.959 35.7148C110.701 35.32 111.334 34.747 111.8 34.0473L110.06 32.8874C109.799 33.3202 109.431 33.6779 108.99 33.9253C108.55 34.1727 108.052 34.3013 107.547 34.2986C107.027 34.3184 106.513 34.1816 106.072 33.9059C105.63 33.6301 105.282 33.2281 105.072 32.752L111.897 29.9295L111.665 29.3494ZM104.705 31.0508C104.681 30.6793 104.731 30.3068 104.853 29.955C104.975 29.6032 105.165 29.2792 105.414 29.002C105.662 28.7247 105.963 28.4998 106.3 28.3404C106.636 28.181 107.001 28.0903 107.373 28.0736C107.76 28.0481 108.146 28.1372 108.483 28.3297C108.82 28.5222 109.093 28.8097 109.267 29.1562L104.705 31.0508ZM99.1565 35.9998H101.399V20.9979H99.1565V35.9998ZM95.4833 27.2422H95.406C95.065 26.8718 94.6489 26.5784 94.1855 26.3817C93.7221 26.185 93.222 26.0895 92.7187 26.1016C91.4027 26.1576 90.1591 26.7198 89.2477 27.6708C88.3363 28.6219 87.8275 29.8882 87.8275 31.2054C87.8275 32.5226 88.3363 33.7889 89.2477 34.7399C90.1591 35.6909 91.4027 36.2531 92.7187 36.3091C93.224 36.3226 93.7261 36.2258 94.1902 36.0255C94.6543 35.8252 95.0692 35.5261 95.406 35.1492H95.4833V35.8839C95.4833 37.8365 94.4394 38.8804 92.7573 38.8804C92.1968 38.8669 91.6529 38.687 91.195 38.3633C90.7371 38.0397 90.3859 37.587 90.1862 37.0631L88.2336 37.8751C88.6016 38.7711 89.2288 39.5368 90.0347 40.0741C90.8407 40.6114 91.7887 40.8959 92.7573 40.891C95.3867 40.891 97.6099 39.3444 97.6099 35.5745V26.4109H95.4833V27.2422ZM92.9121 34.2986C92.137 34.2328 91.4148 33.8785 90.8885 33.3057C90.3622 32.7328 90.0701 31.9833 90.0701 31.2054C90.0701 30.4275 90.3622 29.6779 90.8885 29.1051C91.4148 28.5323 92.137 28.1779 92.9121 28.1122C93.2978 28.131 93.6757 28.2273 94.0233 28.3953C94.3709 28.5633 94.6811 28.7996 94.9355 29.09C95.1899 29.3805 95.3832 29.7191 95.5039 30.0859C95.6245 30.4526 95.6701 30.8399 95.6379 31.2246C95.6681 31.607 95.6208 31.9915 95.4989 32.3552C95.3771 32.7188 95.1831 33.0542 94.9286 33.3412C94.6741 33.6281 94.3644 33.8608 94.0179 34.0253C93.6715 34.1898 93.2954 34.2828 92.9121 34.2986ZM122.169 20.9982H116.804V35.9998H119.043V30.3161H122.169C122.803 30.3508 123.436 30.2561 124.032 30.0376C124.627 29.8192 125.172 29.4816 125.633 29.0456C126.093 28.6096 126.46 28.0842 126.711 27.5016C126.962 26.919 127.091 26.2914 127.091 25.6572C127.091 25.0229 126.962 24.3953 126.711 23.8127C126.46 23.2301 126.093 22.7047 125.633 22.2687C125.172 21.8327 124.627 21.4951 124.032 21.2767C123.436 21.0582 122.803 20.9635 122.169 20.9982ZM122.227 28.2284H119.043V23.086H122.227C122.569 23.079 122.91 23.1402 123.228 23.2662C123.546 23.3923 123.836 23.5805 124.08 23.82C124.325 24.0594 124.519 24.3453 124.651 24.6608C124.784 24.9762 124.852 25.315 124.852 25.6572C124.852 25.9994 124.784 26.3382 124.651 26.6537C124.519 26.9691 124.325 27.255 124.08 27.4944C123.836 27.7339 123.546 27.9221 123.228 28.0482C122.91 28.1742 122.569 28.2355 122.227 28.2284ZM136.065 26.074C135.248 26.0263 134.435 26.2182 133.725 26.6262C133.015 27.0342 132.44 27.6405 132.07 28.3707L134.058 29.2006C134.255 28.8382 134.554 28.5411 134.917 28.3457C135.28 28.1503 135.693 28.0651 136.104 28.1005C136.672 28.045 137.239 28.217 137.68 28.5788C138.121 28.9406 138.401 29.4626 138.459 30.0304V30.1848C137.739 29.8029 136.937 29.604 136.123 29.6059C133.981 29.6059 131.8 30.7832 131.8 32.9834C131.821 33.447 131.935 33.9018 132.135 34.3207C132.334 34.7396 132.617 35.1141 132.964 35.4219C133.311 35.7297 133.717 35.9646 134.157 36.1126C134.597 36.2606 135.062 36.3188 135.525 36.2836C136.089 36.3168 136.651 36.1982 137.153 35.9402C137.656 35.6823 138.08 35.2943 138.381 34.8168H138.459V35.9748H140.62V30.2235C140.62 27.5601 138.632 26.074 136.065 26.074ZM135.795 34.2957C135.062 34.2957 134.039 33.9291 134.039 33.0219C134.039 31.864 135.313 31.42 136.413 31.42C137.127 31.401 137.834 31.5743 138.459 31.9218C138.376 32.5725 138.061 33.1714 137.572 33.6078C137.082 34.0442 136.451 34.2885 135.795 34.2957ZM148.495 26.4021L145.928 32.9061H145.85L143.187 26.4021H140.775L144.77 35.4923L142.492 40.5488H144.827L150.984 26.4021H148.495ZM128.326 35.9998H130.565V20.9982H128.326V35.9998Z" fill="white"/>
<path d="M12.5246 9.04574C12.1311 9.51622 11.9324 10.1194 11.9692 10.7316V37.2708C11.9323 37.8831 12.131 38.4862 12.5246 38.9567L12.6134 39.0432L27.4802 24.1766V23.8258L12.6134 8.95862L12.5246 9.04574Z" fill="url(#paint0_linear_368_60197)"/>
<path d="M32.4358 29.1345L27.4805 24.1768V23.8261L32.437 18.8696L32.5487 18.9333L38.4201 22.2695C40.0972 23.2222 40.0972 24.7813 38.4201 25.7347L32.5487 29.0708L32.4358 29.1345Z" fill="url(#paint1_linear_368_60197)"/>
<path d="M32.5473 29.0698L27.4791 24.0011L12.5234 38.9565C12.8652 39.2579 13.3016 39.4302 13.757 39.4437C14.2124 39.4572 14.6582 39.3109 15.0172 39.0302L32.5473 29.0698Z" fill="url(#paint2_linear_368_60197)"/>
<path d="M32.5473 18.9323L15.0172 8.97186C14.6582 8.69118 14.2124 8.54489 13.757 8.55835C13.3016 8.5718 12.8652 8.74416 12.5234 9.04554L27.4791 24.0011L32.5473 18.9323Z" fill="url(#paint3_linear_368_60197)"/>
<path opacity="0.2" d="M32.4356 28.9581L15.0172 38.8548C14.6721 39.1176 14.2509 39.2609 13.8171 39.2632C13.3834 39.2655 12.9607 39.1267 12.6128 38.8677L12.5234 38.9571L12.6122 39.0436L12.6128 39.043C12.9607 39.3022 13.3834 39.4411 13.8171 39.4387C14.2509 39.4364 14.6721 39.293 15.0172 39.0302L32.5473 29.0697L32.4356 28.9581Z" fill="#374151"/>
<path opacity="0.12" d="M12.5245 38.7817C12.1311 38.3112 11.9324 37.7081 11.9692 37.0958V37.2711C11.9324 37.8834 12.1311 38.4865 12.5245 38.957L12.6139 38.8676L12.5245 38.7817Z" fill="#374151"/>
<path opacity="0.12" d="M38.4186 25.5585L32.4355 28.9583L32.5473 29.0699L38.4186 25.7338C38.764 25.5839 39.0629 25.3442 39.2841 25.0395C39.5054 24.7349 39.6409 24.3765 39.6766 24.0017C39.6024 24.3411 39.45 24.6586 39.2316 24.9288C39.0133 25.199 38.7349 25.4146 38.4186 25.5585Z" fill="#374151"/>
<path opacity="0.25" d="M15.0178 9.14762L38.4194 22.4436C38.7357 22.5874 39.0142 22.803 39.2326 23.0734C39.451 23.3438 39.6033 23.6613 39.6773 24.0009C39.6419 23.626 39.5064 23.2674 39.2852 22.9626C39.0639 22.6578 38.7649 22.418 38.4194 22.2682L15.0178 8.9723C13.3407 8.01938 11.9688 8.8109 11.9688 10.7319V10.9072C11.9688 8.98634 13.3407 8.19482 15.0178 9.14762Z" fill="white"/>
</g>
<defs>
<linearGradient id="paint0_linear_368_60197" x1="26.1618" y1="10.4518" x2="6.02302" y2="30.5907" gradientUnits="userSpaceOnUse">
<stop stop-color="#00A0FF"/>
<stop offset="0.00657" stop-color="#00A1FF"/>
<stop offset="0.2601" stop-color="#00BEFF"/>
<stop offset="0.5122" stop-color="#00D2FF"/>
<stop offset="0.7604" stop-color="#00DFFF"/>
<stop offset="1" stop-color="#00E3FF"/>
</linearGradient>
<linearGradient id="paint1_linear_368_60197" x1="40.6037" y1="24.0021" x2="11.5673" y2="24.0021" gradientUnits="userSpaceOnUse">
<stop stop-color="#FFE000"/>
<stop offset="0.4087" stop-color="#FFBD00"/>
<stop offset="0.7754" stop-color="#FFA500"/>
<stop offset="1" stop-color="#FF9C00"/>
</linearGradient>
<linearGradient id="paint2_linear_368_60197" x1="29.7933" y1="26.7552" x2="2.48354" y2="54.0652" gradientUnits="userSpaceOnUse">
<stop stop-color="#FF3A44"/>
<stop offset="1" stop-color="#C31162"/>
</linearGradient>
<linearGradient id="paint3_linear_368_60197" x1="8.75774" y1="0.211404" x2="20.9527" y2="12.4065" gradientUnits="userSpaceOnUse">
<stop stop-color="#32A071"/>
<stop offset="0.0685" stop-color="#2DA771"/>
<stop offset="0.4762" stop-color="#15CF74"/>
<stop offset="0.8009" stop-color="#06E775"/>
<stop offset="1" stop-color="#00F076"/>
</linearGradient>
<clipPath id="clip0_368_60197">
<rect width="162.001" height="48" fill="white"/>
</clipPath>
</defs>
</svg>
